<svg xmlns="http://www.w3.org/2000/svg" viewBox="0 0 800 450" role="img" aria-labelledby="t d"><title id="t">Velocity-time graph crossing zero</title><desc id="d">A velocity-time graph with one segment falling from positive to negative velocity.</desc><rect width="800" height="450" fill="white"/><g stroke="#d5dbe3" stroke-width="1"><line x1="70" y1="40" x2="70" y2="390"/><line x1="140" y1="40" x2="140" y2="390"/><line x1="210" y1="40" x2="210" y2="390"/><line x1="280" y1="40" x2="280" y2="390"/><line x1="350" y1="40" x2="350" y2="390"/><line x1="420" y1="40" x2="420" y2="390"/><line x1="490" y1="40" x2="490" y2="390"/><line x1="560" y1="40" x2="560" y2="390"/><line x1="630" y1="40" x2="630" y2="390"/><line x1="700" y1="40" x2="700" y2="390"/><line x1="770" y1="40" x2="770" y2="390"/><line x1="70" y1="390" x2="770" y2="390"/><line x1="70" y1="320" x2="770" y2="320"/><line x1="70" y1="250" x2="770" y2="250"/><line x1="70" y1="180" x2="770" y2="180"/><line x1="70" y1="110" x2="770" y2="110"/><line x1="70" y1="40" x2="770" y2="40"/></g><line x1="70" y1="250" x2="770" y2="250" stroke="#111" stroke-width="2"/><line x1="70" y1="40" x2="70" y2="390" stroke="#111" stroke-width="2"/><g font-family="Arial" font-size="13" fill="#111827"><text x="70" y="410" text-anchor="middle">0</text><text x="140" y="410" text-anchor="middle">1</text><text x="210" y="410" text-anchor="middle">2</text><text x="280" y="410" text-anchor="middle">3</text><text x="350" y="410" text-anchor="middle">4</text><text x="420" y="410" text-anchor="middle">5</text><text x="490" y="410" text-anchor="middle">6</text><text x="560" y="410" text-anchor="middle">7</text><text x="630" y="410" text-anchor="middle">8</text><text x="700" y="410" text-anchor="middle">9</text><text x="770" y="410" text-anchor="middle">10</text><text x="60" y="394" text-anchor="end">-4</text><text x="60" y="324" text-anchor="end">-2</text><text x="60" y="254" text-anchor="end">0</text><text x="60" y="184" text-anchor="end">2</text><text x="60" y="114" text-anchor="end">4</text><text x="60" y="44" text-anchor="end">6</text></g><text x="420" y="438" font-family="Arial" font-size="14" fill="#111" text-anchor="middle">time (s)</text><text x="18" y="215" font-family="Arial" font-size="14" fill="#111" text-anchor="middle" transform="rotate(-90 18 215)">velocity (m/s)</text><g stroke="#1769aa" stroke-width="3.5" fill="none"><line x1="70" y1="75" x2="630" y2="355"/></g><circle cx="70" cy="75" r="5.5" fill="#1769aa"/><text data-point-index="0" x="70" y="35" font-family="Arial" font-size="13" fill="#1769aa" text-anchor="middle">A</text><circle cx="630" cy="355" r="5.5" fill="#1769aa"/><text data-point-index="1" x="668" y="341" font-family="Arial" font-size="13" fill="#1769aa" text-anchor="middle">B</text></svg>