<svg xmlns="http://www.w3.org/2000/svg" viewBox="0 0 700 450" role="img" aria-labelledby="t d"><title id="t">Position-time graph, high-challenge multi-segment</title><desc id="d">A position-time graph with three segments of differing slope for combined value and slope calculation.</desc><rect width="700" height="450" fill="white"/><g stroke="#d5dbe3" stroke-width="1"><line x1="70" y1="40" x2="70" y2="390"/><line x1="136.66666666666666" y1="40" x2="136.66666666666666" y2="390"/><line x1="203.33333333333331" y1="40" x2="203.33333333333331" y2="390"/><line x1="270" y1="40" x2="270" y2="390"/><line x1="336.66666666666663" y1="40" x2="336.66666666666663" y2="390"/><line x1="403.33333333333337" y1="40" x2="403.33333333333337" y2="390"/><line x1="470" y1="40" x2="470" y2="390"/><line x1="536.6666666666667" y1="40" x2="536.6666666666667" y2="390"/><line x1="603.3333333333333" y1="40" x2="603.3333333333333" y2="390"/><line x1="670" y1="40" x2="670" y2="390"/><line x1="70" y1="390" x2="670" y2="390"/><line x1="70" y1="340" x2="670" y2="340"/><line x1="70" y1="290" x2="670" y2="290"/><line x1="70" y1="240" x2="670" y2="240"/><line x1="70" y1="190" x2="670" y2="190"/><line x1="70" y1="140" x2="670" y2="140"/><line x1="70" y1="90" x2="670" y2="90"/><line x1="70" y1="40" x2="670" y2="40"/></g><line x1="70" y1="190" x2="670" y2="190" stroke="#111" stroke-width="2"/><line x1="70" y1="40" x2="70" y2="390" stroke="#111" stroke-width="2"/><g font-family="Arial" font-size="13" fill="#111827"><text x="70" y="410" text-anchor="middle">0</text><text x="136.66666666666666" y="410" text-anchor="middle">1</text><text x="203.33333333333331" y="410" text-anchor="middle">2</text><text x="270" y="410" text-anchor="middle">3</text><text x="336.66666666666663" y="410" text-anchor="middle">4</text><text x="403.33333333333337" y="410" text-anchor="middle">5</text><text x="470" y="410" text-anchor="middle">6</text><text x="536.6666666666667" y="410" text-anchor="middle">7</text><text x="603.3333333333333" y="410" text-anchor="middle">8</text><text x="670" y="410" text-anchor="middle">9</text><text x="60" y="394" text-anchor="end">-8</text><text x="60" y="344" text-anchor="end">-6</text><text x="60" y="294" text-anchor="end">-4</text><text x="60" y="244" text-anchor="end">-2</text><text x="60" y="194" text-anchor="end">0</text><text x="60" y="144" text-anchor="end">2</text><text x="60" y="94" text-anchor="end">4</text><text x="60" y="44" text-anchor="end">6</text></g><text x="370" y="438" font-family="Arial" font-size="14" fill="#111" text-anchor="middle">time (s)</text><text x="18" y="215" font-family="Arial" font-size="14" fill="#111" text-anchor="middle" transform="rotate(-90 18 215)">position (m)</text><g stroke="#1769aa" stroke-width="3.5" fill="none"><line x1="70" y1="90" x2="203.33333333333331" y2="240"/><line x1="203.33333333333331" y1="240" x2="403.33333333333337" y2="340"/><line x1="403.33333333333337" y1="340" x2="670" y2="65"/></g><circle cx="70" cy="90" r="5.5" fill="#1769aa"/><text data-point-index="0" x="15" y="60" font-family="Arial" font-size="13" fill="#1769aa" text-anchor="middle">A</text><circle cx="203.33333333333331" cy="240" r="5.5" fill="#1769aa"/><text data-point-index="1" x="165.33333333333331" y="254" font-family="Arial" font-size="13" fill="#1769aa" text-anchor="middle">B</text><circle cx="403.33333333333337" cy="340" r="5.5" fill="#1769aa"/><text data-point-index="2" x="365.33333333333337" y="354" font-family="Arial" font-size="13" fill="#1769aa" text-anchor="middle">C</text><circle cx="670" cy="65" r="5.5" fill="#1769aa"/><text data-point-index="3" x="670" y="25" font-family="Arial" font-size="13" fill="#1769aa" text-anchor="middle">D</text></svg>