<svg xmlns="http://www.w3.org/2000/svg" viewBox="90 18 200 185" role="img"
     aria-label="Box free-body diagram of a crate pulled across a rough floor by a rope at 30 degrees above the horizontal while speeding up. Gravity down from the centre. The normal force up from the bottom surface, drawn shorter than gravity because the rope lifts part of the weight. Kinetic friction to the left along the bottom surface, drawn short. The rope tension up and to the right at 30 degrees, drawn as the longest arrow. An arc marks the 30-degree angle.">
  <!-- Generated by build/gen-diagrams.js — do not hand-edit.
       Labels are auto-placed clear of the object, the arrows, and each
       other (master-project-prompt.md §11). -->
  <defs>
    <marker id="fbd-grey" viewBox="0 0 10 10" refX="8.5" refY="5" markerUnits="userSpaceOnUse" markerWidth="12" markerHeight="12" orient="auto-start-reverse"><path d="M0 1 L10 5 L0 9 z" fill="#8b96a5"/></marker>
    <marker id="fbd-blue" viewBox="0 0 10 10" refX="8.5" refY="5" markerUnits="userSpaceOnUse" markerWidth="12" markerHeight="12" orient="auto-start-reverse"><path d="M0 1 L10 5 L0 9 z" fill="#58a6ff"/></marker>
    <marker id="fbd-amber" viewBox="0 0 10 10" refX="8.5" refY="5" markerUnits="userSpaceOnUse" markerWidth="12" markerHeight="12" orient="auto-start-reverse"><path d="M0 1 L10 5 L0 9 z" fill="#f0c27a"/></marker>
    <marker id="fbd-red" viewBox="0 0 10 10" refX="8.5" refY="5" markerUnits="userSpaceOnUse" markerWidth="12" markerHeight="12" orient="auto-start-reverse"><path d="M0 1 L10 5 L0 9 z" fill="#f85149"/></marker>
  </defs>
  <line x1="95.9" y1="134" x2="285.1" y2="134" stroke="#8b96a5" stroke-width="1.5"/>
  <g stroke="#8b96a5" stroke-width="1.1"><line x1="105.9" y1="134" x2="97.9" y2="144"/><line x1="127.9" y1="134" x2="119.9" y2="144"/><line x1="149.9" y1="134" x2="141.9" y2="144"/><line x1="171.9" y1="134" x2="163.9" y2="144"/><line x1="193.9" y1="134" x2="185.9" y2="144"/><line x1="215.9" y1="134" x2="207.9" y2="144"/><line x1="237.9" y1="134" x2="229.9" y2="144"/><line x1="259.9" y1="134" x2="251.9" y2="144"/><line x1="281.9" y1="134" x2="273.9" y2="144"/></g>
  <rect x="116" y="90" width="68" height="44" rx="3" fill="#e6edf3" fill-opacity="0.05" stroke="#e6edf3" stroke-width="1.5"/>
  <circle cx="150" cy="112" r="2.4" fill="#e6edf3"/>
  <line x1="150" y1="112" x2="150" y2="175" stroke="#8b96a5" stroke-width="3" marker-end="url(#fbd-grey)"/>
  <line x1="134" y1="134" x2="134" y2="86" stroke="#58a6ff" stroke-width="3" marker-end="url(#fbd-blue)"/>
  <line x1="176" y1="90" x2="256.5" y2="43.5" stroke="#f0c27a" stroke-width="3" marker-end="url(#fbd-amber)"/>
  <line x1="168" y1="134" x2="120" y2="134" stroke="#f85149" stroke-width="3" marker-end="url(#fbd-red)"/>
  <line x1="176" y1="90" x2="204" y2="90" stroke="#8b96a5" stroke-width="1" stroke-dasharray="3 2"/>
  <path d="M 198 90 A 22 22 0 0 0 195.1 79" fill="none" stroke="#8b96a5" stroke-width="1.2"/>
  <text x="212.7" y="80.2" text-anchor="middle" dominant-baseline="central" font-family="system-ui, sans-serif" font-size="11" fill="#8b96a5">30°</text>
  <text x="143.2" y="185" text-anchor="start" dominant-baseline="hanging" font-family="system-ui, sans-serif" fill="#8b96a5" font-size="13" font-weight="600">F</text>
  <text x="151" y="188.5" text-anchor="start" dominant-baseline="hanging" font-family="system-ui, sans-serif" fill="#8b96a5" font-size="9" font-weight="600">g</text>
  <text x="127.2" y="75" text-anchor="start" dominant-baseline="auto" font-family="system-ui, sans-serif" fill="#58a6ff" font-size="13" font-weight="600">F</text>
  <text x="135" y="78.5" text-anchor="start" dominant-baseline="auto" font-family="system-ui, sans-serif" fill="#58a6ff" font-size="9" font-weight="600">N</text>
  <text x="265.5" y="36.5" text-anchor="start" dominant-baseline="auto" font-family="system-ui, sans-serif" fill="#f0c27a" font-size="13" font-weight="600">F</text>
  <text x="273.3" y="40" text-anchor="start" dominant-baseline="auto" font-family="system-ui, sans-serif" fill="#f0c27a" font-size="9" font-weight="600">T</text>
  <text x="101.9" y="120" text-anchor="start" dominant-baseline="central" font-family="system-ui, sans-serif" fill="#f85149" font-size="13" font-weight="600" font-style="italic">f</text>
</svg>
